<svg height="512pt" viewBox="-65 0 512 512" width="512pt" fill="#eeeeee" xmlns="http://www.w3.org/2000/svg"><path d="m341.242188 194.761719c-9.253907 10.425781-22.753907 17.015625-37.769532 17.015625-22.34375 0-41.339844-14.566406-47.972656-34.6875h-127.46875c-6.628906 20.121094-25.628906 34.6875-47.96875 34.6875-1.515625 0-3.019531-.066406-4.511719-.199219v47.636719c0 29.453125-24 53.414062-53.496093 53.414062-3.933594 0-7.765626-.441406-11.464844-1.25v140.878906c0 32.941407 26.800781 59.742188 59.742187 59.742188h183.113281c32.941407 0 59.742188-26.800781 59.742188-59.742188v-11.878906h8.207031c33.585938 0 60.914063-27.28125 60.914063-60.8125v-127.324218c0-26.59375-17.199219-49.242188-41.066406-57.480469zm-128.613282 43.902343c0-8.683593 7.039063-15.71875 15.71875-15.71875 8.683594 0 15.722656 7.035157 15.722656 15.71875v189.976563c0 8.679687-7.039062 15.71875-15.722656 15.71875-8.679687 0-15.71875-7.039063-15.71875-15.71875zm-66.457031 0c0-8.683593 7.039063-15.71875 15.71875-15.71875 8.683594 0 15.71875 7.035157 15.71875 15.71875v189.976563c0 8.679687-7.035156 15.71875-15.71875 15.71875-8.679687 0-15.71875-7.039063-15.71875-15.71875zm-66.460937 70.609376c0-8.679688 7.039062-15.71875 15.722656-15.71875 8.679687 0 15.71875 7.039062 15.71875 15.71875v119.367187c0 8.679687-7.039063 15.71875-15.71875 15.71875-8.683594 0-15.722656-7.039063-15.722656-15.71875zm271.160156 70.292968c0 16.199219-13.222656 29.375-29.476563 29.375h-8.207031v-186.074218h8.207031c16.253907 0 29.476563 13.175781 29.476563 29.375zm0 0"/><path d="m22.054688 281.1875c12.164062 0 22.058593-9.855469 22.058593-21.972656v-69.644532c0-5.890624 3.292969-11.285156 8.53125-13.976562 5.238281-2.695312 11.542969-2.234375 16.335938 1.195312 3.246093 2.324219 7.078125 3.550782 11.082031 3.550782 10.5 0 19.042969-8.507813 19.042969-18.96875 0-8.679688 7.039062-15.71875 15.71875-15.71875h153.882812c8.683594 0 15.722657 7.039062 15.722657 15.71875 0 10.460937 8.542968 18.96875 19.042968 18.96875s19.042969-8.507813 19.042969-18.96875c0-8.128906-5.195313-15.347656-12.925781-17.960938-5.296875-1.789062-9.242188-6.253906-10.367188-11.726562-4.796875-23.308594-25.449218-40.246094-49.160156-40.339844-.183594.007812-.363281.007812-.542969.007812-7.035156 0-13.21875-4.675781-15.128906-11.457031-4.769531-16.929687-20.328125-28.753906-37.839844-28.75-.980469 0-2.054687.046875-3.292969.148438-6.535156.546875-12.714843-3.027344-15.511718-8.957031-12.132813-25.71875-38.261719-42.335938-66.566406-42.335938-19.652344 0-38.128907 7.6875-52.03125 21.640625-13.917969 13.972656-21.582032 32.554687-21.582032 52.324219 0 3.929687.3125 7.890625.929688 11.777344 1.144531 7.203124-2.8125 14.246093-9.5625 17.011718-17.3125 7.097656-28.585938 23.683594-28.9062502 42.414063.0273437.53125.0273437 1.066406 0 1.601562-.015625.359375-.0273438.71875-.0273438 1.082031v111.363282c0 12.117187 9.894531 21.972656 22.054688 21.972656zm0 0"/></svg>