<svg width="47" height="47" viewBox="0 0 47 47" fill="none" xmlns="http://www.w3.org/2000/svg">
<path d="M15.054 19.091C14.2726 19.091 13.5087 19.3227 12.8589 19.7569C12.2092 20.191 11.7028 20.8081 11.4038 21.53C11.1047 22.252 11.0265 23.0464 11.1789 23.8128C11.3314 24.5792 11.7077 25.2832 12.2602 25.8358C12.8128 26.3883 13.5168 26.7646 14.2832 26.9171C15.0496 27.0695 15.844 26.9913 16.566 26.6922C17.2879 26.3932 17.905 25.8868 18.3391 25.2371C18.7733 24.5873 19.005 23.8234 19.005 23.042C19.0053 22.5231 18.9032 22.0092 18.7048 21.5297C18.5063 21.0502 18.2153 20.6146 17.8484 20.2476C17.4814 19.8807 17.0458 19.5897 16.5663 19.3912C16.0868 19.1928 15.5729 19.0907 15.054 19.091V19.091ZM15.054 25.606C14.5467 25.606 14.0508 25.4556 13.629 25.1737C13.2072 24.8919 12.8784 24.4913 12.6842 24.0226C12.4901 23.5539 12.4393 23.0382 12.5383 22.5406C12.6373 22.043 12.8815 21.586 13.2403 21.2273C13.599 20.8686 14.056 20.6243 14.5536 20.5253C15.0512 20.4263 15.5669 20.4771 16.0356 20.6712C16.5043 20.8654 16.9049 21.1942 17.1867 21.616C17.4686 22.0378 17.619 22.5337 17.619 23.041C17.6193 23.3779 17.5531 23.7116 17.4243 24.0229C17.2955 24.3342 17.1066 24.6171 16.8683 24.8553C16.6301 25.0935 16.3472 25.2825 16.0359 25.4113C15.7246 25.5401 15.3909 25.6063 15.054 25.606V25.606Z" fill="#EEEEEE"/>
<path d="M34.948 20.2H20.843C20.6592 20.2 20.4829 20.273 20.353 20.403C20.223 20.5329 20.15 20.7092 20.15 20.893C20.15 21.0768 20.223 21.2531 20.353 21.383C20.4829 21.513 20.6592 21.586 20.843 21.586H34.948C35.1318 21.586 35.3081 21.513 35.438 21.383C35.568 21.2531 35.641 21.0768 35.641 20.893C35.641 20.7092 35.568 20.5329 35.438 20.403C35.3081 20.273 35.1318 20.2 34.948 20.2V20.2Z" fill="#EEEEEE"/>
<path d="M28.44 24.497H20.84C20.6562 24.497 20.4799 24.57 20.35 24.7C20.22 24.8299 20.147 25.0062 20.147 25.19C20.147 25.3738 20.22 25.5501 20.35 25.68C20.4799 25.81 20.6562 25.883 20.84 25.883H28.44C28.6238 25.883 28.8001 25.81 28.93 25.68C29.06 25.5501 29.133 25.3738 29.133 25.19C29.133 25.0062 29.06 24.8299 28.93 24.7C28.8001 24.57 28.6238 24.497 28.44 24.497Z" fill="#EEEEEE"/>
<path d="M15.054 8.243C14.2726 8.243 13.5087 8.47472 12.8589 8.90886C12.2092 9.343 11.7028 9.96006 11.4038 10.682C11.1047 11.404 11.0265 12.1984 11.1789 12.9648C11.3314 13.7312 11.7077 14.4352 12.2602 14.9878C12.8128 15.5403 13.5168 15.9166 14.2832 16.0691C15.0496 16.2215 15.844 16.1433 16.566 15.8442C17.2879 15.5452 17.905 15.0388 18.3391 14.3891C18.7733 13.7393 19.005 12.9754 19.005 12.194C19.0053 11.6751 18.9032 11.1612 18.7048 10.6817C18.5063 10.2022 18.2153 9.76657 17.8484 9.39963C17.4814 9.03269 17.0458 8.74168 16.5663 8.54321C16.0868 8.34475 15.5729 8.24273 15.054 8.243ZM15.054 14.751C14.5467 14.751 14.0508 14.6006 13.629 14.3187C13.2072 14.0369 12.8784 13.6363 12.6842 13.1676C12.4901 12.6989 12.4393 12.1832 12.5383 11.6856C12.6373 11.188 12.8815 10.731 13.2403 10.3723C13.599 10.0135 14.056 9.76925 14.5536 9.67028C15.0512 9.57131 15.5669 9.62211 16.0356 9.81625C16.5043 10.0104 16.9049 10.3391 17.1867 10.761C17.4686 11.1828 17.619 11.6787 17.619 12.186C17.6193 12.5229 17.5531 12.8566 17.4243 13.1679C17.2955 13.4792 17.1066 13.7621 16.8683 14.0003C16.6301 14.2385 16.3472 14.4275 16.0359 14.5563C15.7246 14.6851 15.3909 14.7513 15.054 14.751V14.751Z" fill="#EEEEEE"/>
<path d="M34.948 9.318H20.843C20.6592 9.318 20.4829 9.39101 20.353 9.52098C20.223 9.65094 20.15 9.82721 20.15 10.011C20.15 10.1948 20.223 10.3711 20.353 10.501C20.4829 10.631 20.6592 10.704 20.843 10.704H34.948C35.1318 10.704 35.3081 10.631 35.438 10.501C35.568 10.3711 35.641 10.1948 35.641 10.011C35.641 9.82721 35.568 9.65094 35.438 9.52098C35.3081 9.39101 35.1318 9.318 34.948 9.318V9.318Z" fill="#EEEEEE"/>
<path d="M28.44 13.684H20.84C20.6562 13.684 20.4799 13.757 20.35 13.887C20.22 14.0169 20.147 14.1932 20.147 14.377C20.147 14.5608 20.22 14.7371 20.35 14.867C20.4799 14.997 20.6562 15.07 20.84 15.07H28.44C28.6238 15.07 28.8001 14.997 28.93 14.867C29.06 14.7371 29.133 14.5608 29.133 14.377C29.133 14.1932 29.06 14.0169 28.93 13.887C28.8001 13.757 28.6238 13.684 28.44 13.684Z" fill="#EEEEEE"/>
<path d="M15.054 29.945C14.2726 29.945 13.5087 30.1767 12.8589 30.6109C12.2092 31.045 11.7028 31.6621 11.4038 32.384C11.1047 33.106 11.0265 33.9004 11.1789 34.6668C11.3314 35.4332 11.7077 36.1372 12.2602 36.6898C12.8128 37.2423 13.5168 37.6186 14.2832 37.7711C15.0496 37.9235 15.844 37.8453 16.566 37.5462C17.2879 37.2472 17.905 36.7408 18.3391 36.0911C18.7733 35.4413 19.005 34.6774 19.005 33.896C19.0053 33.3771 18.9032 32.8632 18.7048 32.3837C18.5063 31.9042 18.2153 31.4686 17.8484 31.1016C17.4814 30.7347 17.0458 30.4437 16.5663 30.2452C16.0868 30.0467 15.5729 29.9447 15.054 29.945ZM15.054 36.453C14.5467 36.453 14.0508 36.3026 13.629 36.0207C13.2072 35.7389 12.8784 35.3383 12.6842 34.8696C12.4901 34.4009 12.4393 33.8852 12.5383 33.3876C12.6373 32.89 12.8815 32.433 13.2403 32.0743C13.599 31.7156 14.056 31.4713 14.5536 31.3723C15.0512 31.2733 15.5669 31.3241 16.0356 31.5182C16.5043 31.7124 16.9049 32.0411 17.1867 32.463C17.4686 32.8848 17.619 33.3807 17.619 33.888C17.6193 34.2249 17.5531 34.5586 17.4243 34.8699C17.2955 35.1812 17.1066 35.4641 16.8683 35.7023C16.6301 35.9406 16.3472 36.1295 16.0359 36.2583C15.7246 36.3871 15.3909 36.4533 15.054 36.453V36.453Z" fill="#EEEEEE"/>
<path d="M34.948 31.012H20.843C20.6592 31.012 20.4829 31.085 20.353 31.215C20.223 31.3449 20.15 31.5212 20.15 31.705C20.15 31.8888 20.223 32.0651 20.353 32.195C20.4829 32.325 20.6592 32.398 20.843 32.398H34.948C35.1318 32.398 35.3081 32.325 35.438 32.195C35.568 32.0651 35.641 31.8888 35.641 31.705C35.641 31.5212 35.568 31.3449 35.438 31.215C35.3081 31.085 35.1318 31.012 34.948 31.012V31.012Z" fill="#EEEEEE"/>
<path d="M28.44 35.379H20.84C20.6562 35.379 20.4799 35.452 20.35 35.582C20.22 35.7119 20.147 35.8882 20.147 36.072C20.147 36.2558 20.22 36.432 20.35 36.562C20.4799 36.692 20.6562 36.765 20.84 36.765H28.44C28.6238 36.765 28.8001 36.692 28.93 36.562C29.06 36.432 29.133 36.2558 29.133 36.072C29.133 35.8882 29.06 35.7119 28.93 35.582C28.8001 35.452 28.6238 35.379 28.44 35.379V35.379Z" fill="#EEEEEE"/>
<path d="M23.5 45C35.3741 45 45 35.3741 45 23.5C45 11.6259 35.3741 2 23.5 2C11.6259 2 2 11.6259 2 23.5C2 35.3741 11.6259 45 23.5 45Z" stroke="#EEEEEE" stroke-width="3"/>
</svg>
