<?xml version="1.0" encoding="iso-8859-1"?>
<!-- Generator: Adobe Illustrator 19.0.0, SVG Export Plug-In . SVG Version: 6.00 Build 0)  -->
<svg version="1.1" id="Capa_1" xmlns="http://www.w3.org/2000/svg" xmlns:xlink="http://www.w3.org/1999/xlink" x="0px" y="0px"
	 viewBox="0 0 416.035 416.035" style="enable-background:new 0 0 416.035 416.035;" xml:space="preserve" fill="#eeeeee">
<g>
	<g>
		<path d="M105.906,147.088L96,48.016H32l-9.902,99.072C8.594,158.783,0,175.951,0,195.215v192c0,7.072,5.73,12.801,12.801,12.801
			h102.402c7.07,0,12.797-5.729,12.797-12.801v-192C128,175.951,119.41,158.783,105.906,147.088z M64,336.016H32v-128h32V336.016z"
			/>
	</g>
</g>
<g>
	<g>
		<rect x="31.998" y="16.019" width="64" height="16"/>
	</g>
</g>
<g>
	<g>
		<path d="M384,176.016h-26.621c6.59-9.008,10.621-20,10.621-32c0-30-24.398-54.4-54.398-54.4c-7.742,0-15.39,1.695-22.398,4.912
			c-20.336-14.561-50.035-14.561-70.371,0c-7.008-3.199-14.652-4.912-22.398-4.912c-30,0-54.398,24.4-54.398,54.4
			c0,15.023,6.125,28.641,16,38.496v217.504h192v-48h32c17.68,0,32-14.32,32-32v-112C416,190.336,401.679,176.016,384,176.016z
			 M320,224.016h-16v-32h16V224.016z M313.602,166.414h-25.586c-8.848,0-16.016,7.186-16.016,16.018v89.393c0,8.848-7.149,16-16,16
			c-8.848,0-16-7.152-16-16v-47.809h-48v-32h48v-9.584c0-8.848-7.168-16.018-16.016-16.018h-25.582
			c-12.351,0-22.402-10.047-22.402-22.398c0-12.351,10.05-22.4,22.402-22.4c5.121,0,9.969,1.76,14.016,5.088
			c6.672,5.488,16.496,4.687,22.207-1.793c10.946-12.496,31.809-12.496,42.754,0c5.711,6.496,15.535,7.282,22.207,1.793
			c4.047-3.328,8.879-5.088,14.016-5.088c12.351,0,22.398,10.049,22.398,22.4S325.953,166.414,313.602,166.414z M384,320.016h-32
			v-112h32V320.016z"/>
	</g>
</g>
<g>
</g>
<g>
</g>
<g>
</g>
<g>
</g>
<g>
</g>
<g>
</g>
<g>
</g>
<g>
</g>
<g>
</g>
<g>
</g>
<g>
</g>
<g>
</g>
<g>
</g>
<g>
</g>
<g>
</g>
</svg>
