<svg width="48" height="48" viewBox="0 0 48 48" fill="none" xmlns="http://www.w3.org/2000/svg">
<circle cx="24" cy="24" r="22.5" stroke="black" stroke-width="3"/>
<g clip-path="url(#clip0)">
<path d="M13.3361 24.8763H14.7365C15.0046 24.8763 15.2216 24.6592 15.2216 24.3911C15.2216 24.1233 15.0046 23.9059 14.7365 23.9059H13.3361C12.6998 23.9059 12.1823 24.4234 12.1823 25.0597V27.4099C12.1823 28.0459 12.6998 28.5634 13.3361 28.5634H14.7365C15.0046 28.5634 15.2216 28.3464 15.2216 28.0783C15.2216 27.8104 15.0046 27.5931 14.7365 27.5931H13.3361C13.2347 27.5931 13.1526 27.511 13.1526 27.4099V25.0597C13.1526 24.9586 13.2347 24.8763 13.3361 24.8763V24.8763Z" fill="black"/>
<path d="M22.6991 23.9059H21.2985C20.6625 23.9059 20.145 24.4234 20.145 25.0597V27.4099C20.145 28.0459 20.6625 28.5634 21.2985 28.5634H22.6991C23.3351 28.5634 23.8526 28.0459 23.8526 27.4099V25.0597C23.8526 24.4234 23.3351 23.9059 22.6991 23.9059V23.9059ZM22.8823 27.4099C22.8823 27.511 22.8002 27.5931 22.6991 27.5931H21.2985C21.1974 27.5931 21.1153 27.511 21.1153 27.4099V25.0597C21.1153 24.9586 21.1974 24.8763 21.2985 24.8763H22.6991C22.8002 24.8763 22.8823 24.9586 22.8823 25.0597V27.4099Z" fill="black"/>
<path d="M34.5622 23.9059H33.3273C32.9205 23.9059 32.5897 24.237 32.5897 24.6435V27.8261C32.5897 28.2327 32.9205 28.5634 33.3273 28.5634H34.5622C35.5191 28.5634 36.2976 27.7849 36.2976 26.8283V25.6411C36.2976 24.6845 35.5191 23.9059 34.5622 23.9059V23.9059ZM35.3273 26.8283C35.3273 27.25 34.9841 27.5931 34.5622 27.5931H33.56V24.8763H34.5622C34.9841 24.8763 35.3273 25.2194 35.3273 25.6414V26.8283Z" fill="black"/>
<path d="M18.9538 27.5931C17.2931 27.5734 17.2322 27.6356 17.2322 27.5476V24.3911C17.2322 24.1233 17.0149 23.9059 16.7471 23.9059C16.479 23.9059 16.2619 24.1233 16.2619 24.3911V27.5476C16.2619 28.1079 16.7175 28.5634 17.2777 28.5634H18.9538C19.2216 28.5634 19.4389 28.3464 19.4389 28.0783C19.4389 27.8104 19.2216 27.5931 18.9538 27.5931Z" fill="black"/>
<path d="M29.7831 24.8763H31.3846C31.6527 24.8763 31.8698 24.6592 31.8698 24.3911C31.8698 24.1233 31.6527 23.9059 31.3846 23.9059H29.7831C29.1974 23.9059 28.7208 24.3828 28.7208 24.9685V27.5012C28.7208 28.0869 29.1974 28.5634 29.7831 28.5634H31.3846C31.6527 28.5634 31.8698 28.3464 31.8698 28.0783C31.8698 27.8104 31.6527 27.5931 31.3846 27.5931H29.7831C29.7323 27.5931 29.6911 27.5519 29.6911 27.5012V26.7759H31.3846C31.6527 26.7759 31.8698 26.5586 31.8698 26.2908C31.8698 26.0227 31.6527 25.8056 31.3846 25.8056H29.6911V24.9685C29.6911 24.9177 29.7323 24.8763 29.7831 24.8763Z" fill="black"/>
<path d="M27.5158 24.8763C27.7839 24.8763 28.0009 24.6592 28.0009 24.3911C28.0009 24.1233 27.7839 23.9059 27.5158 23.9059H25.3169C24.7524 23.9059 24.2933 24.3653 24.2933 24.9298V25.6962C24.2933 26.2607 24.7524 26.7199 25.3169 26.7199C26.9376 26.7426 27.0306 26.6706 27.0306 26.7734C27.0102 27.4723 27.0753 27.5931 26.9773 27.5931H24.7784C24.5103 27.5931 24.2933 27.8104 24.2933 28.0783C24.2933 28.3464 24.5103 28.5634 24.7784 28.5634H26.9773C27.5418 28.5634 28.0009 28.1043 28.0009 27.5398V26.7734C28.0009 26.2089 27.5416 25.7495 26.9773 25.7495C25.3566 25.727 25.2636 25.7991 25.2636 25.6962V24.9298C25.2633 24.8267 25.3169 24.8998 27.5158 24.8763V24.8763Z" fill="black"/>
<path d="M39.1087 18.5182H36.7764L25.0384 9.94055C24.5609 9.59159 23.919 9.59159 23.4415 9.94055L19.4127 12.8848C19.1964 13.0428 19.1491 13.3465 19.307 13.5625C19.4652 13.7791 19.769 13.8261 19.985 13.6682L22.5199 11.8157C22.6389 12.6584 23.3649 13.3088 24.24 13.3088C25.115 13.3088 25.841 12.6584 25.96 11.8157L35.1319 18.5185H13.348L18.505 14.7497C18.7216 14.5915 18.7686 14.288 18.6106 14.0717C18.4525 13.8554 18.149 13.8084 17.9327 13.9663L11.7035 18.5185H9.37121C8.43881 18.5182 7.67999 19.277 7.67999 20.2094V32.2602C7.67999 33.1926 8.43881 33.9514 9.37121 33.9514H28.8492C29.117 33.9514 29.3343 33.7341 29.3343 33.4663C29.3343 33.1982 29.117 32.9811 28.8492 32.9811H9.37121C8.97374 32.9811 8.6503 32.6577 8.6503 32.2602V31.3127H39.8296V32.2602C39.8296 32.6577 39.5062 32.9811 39.1087 32.9811H30.6604C30.3923 32.9811 30.1753 33.1982 30.1753 33.4663C30.1753 33.7341 30.3923 33.9514 30.6604 33.9514H39.1087C40.0414 33.9514 40.7999 33.1926 40.7999 32.2602V20.2094C40.7999 19.277 40.0411 18.5182 39.1087 18.5182V18.5182ZM24.24 12.3385C23.8172 12.3385 23.4731 11.9944 23.4731 11.5716C23.4731 11.1489 23.8172 10.805 24.24 10.805C24.6627 10.805 25.0069 11.1489 25.0069 11.5716C25.0069 11.9946 24.6627 12.3385 24.24 12.3385V12.3385ZM9.37121 19.4885H39.1087C39.5064 19.4885 39.8296 19.8119 39.8296 20.2094V21.157H8.6503V20.2094C8.6503 19.8119 8.97374 19.4885 9.37121 19.4885ZM8.6503 30.3423V22.127H39.8296V30.3423H8.6503Z" fill="black" stroke="black"/>
</g>
<defs>
<clipPath id="clip0">
<rect x="7.67999" y="5.28" width="33.12" height="33.12" fill="white"/>
</clipPath>
</defs>
</svg>
