<svg width="47" height="47" viewBox="0 0 47 47" fill="none" xmlns="http://www.w3.org/2000/svg">
<path d="M23.557 0.0899963C19.008 0.0899963 14.5612 1.43892 10.7789 3.9662C6.99657 6.49347 4.0486 10.0856 2.30779 14.2883C0.566972 18.491 0.111496 23.1155 0.998956 27.5771C1.88642 32.0386 4.07695 36.1368 7.29356 39.3535C10.5102 42.5701 14.6084 44.7606 19.0699 45.6481C23.5315 46.5355 28.156 46.08 32.3587 44.3392C36.5614 42.5984 40.1535 39.6504 42.6808 35.8681C45.2081 32.0858 46.557 27.639 46.557 23.09C46.557 16.99 44.1338 11.1399 39.8205 6.82654C35.5071 2.5132 29.657 0.0899963 23.557 0.0899963V0.0899963ZM23.557 42.804C19.658 42.804 15.8465 41.6478 12.6045 39.4816C9.36256 37.3154 6.83576 34.2365 5.34366 30.6342C3.85155 27.032 3.46115 23.0681 4.22182 19.244C4.98249 15.4198 6.86006 11.9071 9.61711 9.15009C12.3742 6.39304 15.8869 4.51546 19.711 3.7548C23.5351 2.99413 27.499 3.38453 31.1012 4.87664C34.7035 6.36874 37.7824 8.89553 39.9486 12.1375C42.1148 15.3794 43.271 19.1909 43.271 23.09C43.271 28.3185 41.194 33.3328 37.4969 37.0299C33.7998 40.727 28.7855 42.804 23.557 42.804Z" fill="#EEEEEE"/>
<path d="M23.557 4.99899C19.9789 4.99899 16.4812 6.06001 13.5062 8.04788C10.5311 10.0357 8.21237 12.8612 6.84311 16.1669C5.47384 19.4726 5.11558 23.1101 5.81363 26.6194C6.51167 30.1287 8.23467 33.3522 10.7647 35.8823C13.2948 38.4123 16.5183 40.1353 20.0276 40.8334C23.5369 41.5314 27.1744 41.1732 30.4801 39.8039C33.7858 38.4346 36.6113 36.1159 38.5991 33.1408C40.587 30.1658 41.648 26.6681 41.648 23.09C41.648 18.292 39.742 13.6904 36.3493 10.2977C32.9566 6.905 28.355 4.99899 23.557 4.99899V4.99899ZM22.735 7.46599C22.735 7.24785 22.8217 7.03865 22.9759 6.8844C23.1302 6.73015 23.3394 6.64349 23.5575 6.64349C23.7757 6.64349 23.9849 6.73015 24.1391 6.8844C24.2934 7.03865 24.38 7.24785 24.38 7.46599V10.755C24.38 10.9731 24.2934 11.1823 24.1391 11.3366C23.9849 11.4908 23.7757 11.5775 23.5575 11.5775C23.3394 11.5775 23.1302 11.4908 22.9759 11.3366C22.8217 11.1823 22.735 10.9731 22.735 10.755V7.46599ZM11.222 23.912H7.93301C7.71487 23.912 7.50567 23.8253 7.35142 23.6711C7.19717 23.5168 7.11051 23.3076 7.11051 23.0895C7.11051 22.8714 7.19717 22.6621 7.35142 22.5079C7.50567 22.3536 7.71487 22.267 7.93301 22.267H11.222C11.4402 22.267 11.6494 22.3536 11.8036 22.5079C11.9579 22.6621 12.0445 22.8714 12.0445 23.0895C12.0445 23.3076 11.9579 23.5168 11.8036 23.6711C11.6494 23.8253 11.4402 23.912 11.222 23.912V23.912ZM24.379 38.712C24.379 38.9301 24.2924 39.1393 24.1381 39.2936C23.9839 39.4478 23.7747 39.5345 23.5565 39.5345C23.3384 39.5345 23.1292 39.4478 22.9749 39.2936C22.8207 39.1393 22.734 38.9301 22.734 38.712V35.424C22.734 35.2059 22.8207 34.9966 22.9749 34.8424C23.1292 34.6881 23.3384 34.6015 23.5565 34.6015C23.7747 34.6015 23.9839 34.6881 24.1381 34.8424C24.2924 34.9966 24.379 35.2059 24.379 35.424V38.712ZM34.555 13.199L27.577 26.756C27.4987 26.9079 27.3749 27.0317 27.223 27.11L13.666 34.088C13.511 34.1683 13.3345 34.1972 13.162 34.1704C12.9896 34.1437 12.83 34.0628 12.7066 33.9394C12.5832 33.816 12.5023 33.6565 12.4756 33.484C12.4488 33.3115 12.4777 33.135 12.558 32.98L19.536 19.423C19.6143 19.2711 19.7381 19.1473 19.89 19.069L33.447 12.091C33.602 12.0107 33.7785 11.9818 33.951 12.0085C34.1235 12.0353 34.283 12.1162 34.4064 12.2396C34.5298 12.363 34.6107 12.5225 34.6375 12.695C34.6642 12.8675 34.6353 13.044 34.555 13.199ZM39.18 23.912H35.891C35.6729 23.912 35.4637 23.8253 35.3094 23.6711C35.1552 23.5168 35.0685 23.3076 35.0685 23.0895C35.0685 22.8714 35.1552 22.6621 35.3094 22.5079C35.4637 22.3536 35.6729 22.267 35.891 22.267H39.18C39.3982 22.267 39.6074 22.3536 39.7616 22.5079C39.9159 22.6621 40.0025 22.8714 40.0025 23.0895C40.0025 23.3076 39.9159 23.5168 39.7616 23.6711C39.6074 23.8253 39.3982 23.912 39.18 23.912V23.912Z" fill="#EEEEEE"/>
<path d="M15.238 31.408L26.222 25.754L31.875 14.771L20.892 20.425L15.238 31.408ZM23.557 20.638C24.0428 20.6374 24.5179 20.781 24.9221 21.0505C25.3262 21.32 25.6414 21.7034 25.8276 22.1521C26.0137 22.6008 26.0626 23.0947 25.968 23.5712C25.8733 24.0477 25.6395 24.4854 25.296 24.8289C24.9524 25.1725 24.5147 25.4063 24.0382 25.501C23.5617 25.5956 23.0678 25.5467 22.6191 25.3605C22.1704 25.1744 21.787 24.8592 21.5175 24.455C21.248 24.0509 21.1044 23.5758 21.105 23.09C21.1058 22.4399 21.3644 21.8167 21.8241 21.357C22.2837 20.8974 22.9069 20.6388 23.557 20.638V20.638Z" fill="#EEEEEE"/>
<path d="M23.557 24.09C24.1093 24.09 24.557 23.6423 24.557 23.09C24.557 22.5377 24.1093 22.09 23.557 22.09C23.0047 22.09 22.557 22.5377 22.557 23.09C22.557 23.6423 23.0047 24.09 23.557 24.09Z" fill="#EEEEEE"/>
</svg>
