<svg width="159" height="110" viewBox="0 0 159 110" fill="none" xmlns="http://www.w3.org/2000/svg">
<mask id="mask0" mask-type="alpha" maskUnits="userSpaceOnUse" x="32" y="16" width="94" height="94">
<g clip-path="url(#clip0)">
<path d="M79.8068 16.7585C60.8675 16.1202 45.3142 31.283 45.3142 50.0781C45.3142 71.4085 65.7841 86.8886 77.2574 109.151C77.8399 110.281 79.4671 110.283 80.0516 109.153C90.4309 89.121 108.17 75.6886 111.458 56.3903C114.862 36.4203 100.053 17.4411 79.8068 16.7585ZM78.6529 67.5411C69.0084 67.5411 61.1898 59.7223 61.1898 50.0781C61.1898 40.4338 69.0086 32.6151 78.6529 32.6151C88.2973 32.6151 96.1161 40.4338 96.1161 50.0781C96.1161 59.7223 88.2973 67.5411 78.6529 67.5411Z" fill="black"/>
<ellipse cx="78.6303" cy="49.8187" rx="19.5289" ry="19.5289" fill="#C4C4C4"/>
<g clip-path="url(#clip1)">
<path d="M31.7925 20.7277C28.7169 20.6241 26.1912 23.0864 26.1912 26.1386C26.1912 29.6025 29.5153 32.1164 31.3785 35.7316C31.4731 35.9152 31.7374 35.9154 31.8323 35.7319C33.5178 32.4789 36.3986 30.2976 36.9325 27.1637C37.4852 23.9207 35.0804 20.8386 31.7925 20.7277ZM31.6051 28.9745C30.0389 28.9745 28.7693 27.7048 28.7693 26.1386C28.7693 24.5724 30.039 23.3027 31.6051 23.3027C33.1713 23.3027 34.441 24.5724 34.441 26.1386C34.441 27.7048 33.1713 28.9745 31.6051 28.9745Z" fill="black"/>
</g>
</g>
</mask>
<g mask="url(#mask0)">
<rect x="43.1594" y="16.7391" width="70.1446" height="93.2605" fill="#00ADB5"/>
</g>
<mask id="mask1" mask-type="alpha" maskUnits="userSpaceOnUse" x="35" y="1" width="97" height="97">
<g clip-path="url(#clip2)">
<path d="M90.2892 45.4009C90.3019 44.6761 90.8997 44.0988 91.6245 44.1114L102.344 44.3025C101.772 41.1076 99.0227 38.7619 95.7775 38.6995C94.2194 38.6661 92.698 39.1756 91.4743 40.1406C91.048 40.4751 90.4601 40.5132 89.9941 40.2366C88.2826 39.2178 86.1171 39.3745 84.57 40.6293C84.2002 40.9321 83.6939 41.0075 83.2519 40.8255C82.7114 40.603 82.1341 40.4835 81.5497 40.4731C79.4286 40.4427 77.5433 41.8191 76.9262 43.8486L79.4617 43.8943C80.1858 43.9076 80.7624 44.505 80.7501 45.2291L80.6836 49.2864C80.6089 50.2383 81.3199 51.0706 82.2718 51.1453C83.2237 51.22 84.0559 50.5089 84.1306 49.557C84.1362 49.4874 84.1373 49.4175 84.1344 49.3477C84.1387 48.6226 84.73 48.0386 85.4549 48.0429C86.18 48.0472 86.764 48.6385 86.7597 49.3634C86.7597 49.3734 86.7595 49.3834 86.7592 49.3934L86.7262 51.4215C86.7089 52.3762 87.4689 53.1641 88.4237 53.1814C89.3784 53.1987 90.1663 52.4387 90.1836 51.4839L90.2892 45.4009Z" fill="black"/>
<path d="M74.2887 43.4816L65.5107 38.4241L64.8037 39.6624L74.0829 44.959C74.1008 44.4607 74.1697 43.9658 74.2887 43.4816Z" fill="black"/>
<path d="M78.4003 38.1887C77.8417 36.7334 76.7946 35.5176 75.4381 34.7495C72.6156 33.1434 69.0515 33.756 66.9272 36.2122L75.3611 41.0745C76.1551 39.9187 77.2596 39.0107 78.5471 38.4551C78.488 38.3722 78.4387 38.283 78.4003 38.1887Z" fill="black"/>
<path d="M70.9204 83.5412C70.6177 83.3688 70.3959 83.0831 70.3038 82.7469C70.212 82.4111 70.2574 82.0524 70.43 81.7501L73.5095 76.3589L74.0226 47.9497L63.5052 41.9419L48.062 68.9736C47.7026 69.6032 46.901 69.8221 46.2713 69.4629C45.9353 69.2549 45.4944 69.3589 45.2865 69.6949C45.0786 70.0309 45.1826 70.4718 45.5186 70.6797C45.5327 70.6885 45.5471 70.6966 45.5617 70.7043L70.2091 84.7835C70.5522 84.98 70.9896 84.8611 71.1859 84.518C71.3823 84.1748 71.2634 83.7375 70.9204 83.5412ZM51.4364 72.0702L64.5099 49.1799L66.7905 50.483L53.7175 73.3721L51.4364 72.0702ZM57.6052 75.5862L70.6799 52.6964L72.9575 54.004L59.8858 76.8893L57.6052 75.5862ZM66.0531 80.402L63.7672 79.1249L71.3971 65.4609L73.6813 66.7387L66.0531 80.402Z" fill="black"/>
<path d="M102.433 46.9314L92.8941 46.761L92.8686 48.1903L102.408 48.3607L102.433 46.9314Z" fill="black"/>
<path d="M103.76 84.1415C103.75 83.7726 103.46 83.4723 103.092 83.4479C102.367 83.4344 101.791 82.8364 101.804 82.1118L102.358 50.9856L92.8171 50.8157L92.8053 51.5301C92.7619 53.9344 90.7777 55.8484 88.3732 55.805C87.219 55.7842 86.1204 55.3059 85.3186 54.4753C84.9508 54.0948 84.6552 53.6506 84.4458 53.1646C82.3477 54.2946 79.7308 53.51 78.6008 51.4119C78.454 51.1396 78.3371 50.8522 78.2518 50.5549L76.5995 50.5246L76.0415 81.6496C76.0285 82.3745 75.4304 82.9515 74.7056 82.9388C74.7055 82.9387 74.7051 82.9387 74.705 82.9387C74.3096 82.9323 73.984 83.2475 73.9776 83.6429C73.9712 84.0382 74.2864 84.3639 74.6817 84.3703L103.066 84.877C103.461 84.8656 103.772 84.5364 103.76 84.1415ZM80.4958 82.7451L80.9669 56.3887L83.5917 56.4345L83.1206 82.7909L80.4958 82.7451ZM87.5916 82.8711L88.0623 56.5159L90.6871 56.5616L90.216 82.918L87.5916 82.8711ZM94.687 82.9982L95.1605 56.6427L97.7837 56.6892L97.3114 83.0452L94.687 82.9982Z" fill="black"/>
<path d="M78.1026 46.4949L76.6733 46.4694L76.6477 47.8987L78.0771 47.9242L78.1026 46.4949Z" fill="black"/>
<path d="M105.522 26.357C107.569 27.0942 109.825 26.0331 110.562 23.9869C111.299 21.9407 110.238 19.6843 108.192 18.9471C106.146 18.2098 103.889 19.271 103.152 21.3172C102.415 23.3634 103.476 25.6198 105.522 26.357Z" fill="black"/>
<path d="M90.4029 33.4674C93.8132 34.6961 97.5739 32.9275 98.8026 29.5172C100.031 26.1068 98.2628 22.3461 94.8524 21.1174C91.4421 19.8887 87.6814 21.6573 86.4527 25.0676C85.224 28.478 86.9925 32.2387 90.4029 33.4674Z" fill="black"/>
<path d="M73.113 27.238C75.8412 28.221 78.8498 26.8061 79.8328 24.0778C80.8157 21.3496 79.4009 18.341 76.6726 17.3581C73.9443 16.3751 70.9358 17.7899 69.9528 20.5182C68.9698 23.2465 70.3847 26.255 73.113 27.238Z" fill="black"/>
<path d="M69.7076 13.4533C71.7538 14.1906 74.0102 13.1294 74.7475 11.0832C75.4847 9.03702 74.4235 6.7806 72.3773 6.04338C70.3311 5.30615 68.0747 6.36729 67.3375 8.41349C66.6003 10.4597 67.6614 12.7161 69.7076 13.4533Z" fill="black"/>
<path d="M59.2855 36.4436C56.6848 34.9568 53.3713 35.8598 51.8845 38.4604C51.8837 38.4617 51.883 38.4632 51.8822 38.4645L42.3333 55.1932C40.8502 57.7964 41.7539 61.1087 44.3537 62.5977L48.1864 64.7865L49.5455 62.4046L46.5951 60.7179C44.8218 59.7063 44.2045 57.4487 45.2162 55.6754C45.2166 55.6745 45.2171 55.6738 45.2176 55.6729L53.7645 40.7068C54.2502 39.854 55.0558 39.2303 56.0032 38.9739C56.947 38.7108 57.957 38.8387 58.8054 39.3291L61.7561 41.0145L63.1157 38.6314L59.2855 36.4436Z" fill="black"/>
<path d="M113.772 73.1992L114.118 53.9386C114.137 52.8718 113.841 51.823 113.267 50.9238C112.29 49.3888 110.607 48.4468 108.788 48.4156L104.375 48.3368L104.327 51.0795L107.725 51.1401C109.764 51.1833 111.385 52.8645 111.355 54.9035L111.047 72.1362C111.01 74.1782 109.325 75.8042 107.284 75.7686L103.884 75.7076L103.836 78.4486L108.248 78.5286C111.244 78.5779 113.714 76.1943 113.772 73.1992Z" fill="black"/>
</g>
</mask>
<g mask="url(#mask1)">
<rect x="43.0394" y="1.81116" width="85.0047" height="81.3616" transform="rotate(6.12044 43.0394 1.81116)" fill="#004A4E"/>
</g>
<path d="M18.2948 91.816C17.0148 91.816 15.8948 91.544 14.9348 91C14.0068 90.488 13.5428 89.576 13.5428 88.264C13.5428 87.432 13.7508 86.504 14.1668 85.48C14.7428 86.12 15.2708 86.568 15.7508 86.824C16.2628 87.08 16.8068 87.208 17.3828 87.208C18.9828 87.208 20.1668 86.312 20.9348 84.52C21.7348 82.728 22.1348 80.744 22.1348 78.568C22.1348 74.504 20.6148 72.472 17.5748 72.472C16.7108 72.472 15.9748 72.52 15.3668 72.616L11.4308 91H4.51875L11.0468 60.472L18.1508 59.512L15.8948 70.168H16.1828C17.3988 70.168 18.5348 69.784 19.5908 69.016C20.6468 68.216 21.4948 67.224 22.1348 66.04C22.7748 64.824 23.0948 63.608 23.0948 62.392C23.0948 60.92 22.5668 59.688 21.5108 58.696C20.4868 57.704 18.9028 57.208 16.7588 57.208C14.8068 57.208 12.9028 57.656 11.0468 58.552C9.19075 59.416 7.67075 60.728 6.48675 62.488C5.33475 64.248 4.75875 66.376 4.75875 68.872C4.75875 70.056 4.87075 70.888 5.09475 71.368C5.31875 71.816 5.43075 72.072 5.43075 72.136C3.73475 72.136 2.45475 71.8 1.59075 71.128C0.72675 70.424 0.29475 69.288 0.29475 67.72C0.29475 65.544 1.11075 63.48 2.74275 61.528C4.37475 59.576 6.53475 58.008 9.22275 56.824C11.9108 55.608 14.7428 55 17.7188 55C19.9588 55 21.8468 55.352 23.3828 56.056C24.9188 56.76 26.0548 57.688 26.7908 58.84C27.5588 59.992 27.9427 61.256 27.9427 62.632C27.9427 64.104 27.5268 65.528 26.6948 66.904C25.8628 68.28 24.6788 69.4 23.1428 70.264C25.0628 70.616 26.4868 71.512 27.4148 72.952C28.3428 74.36 28.8068 76.04 28.8068 77.992C28.8068 79.816 28.4548 81.8 27.7508 83.944C27.0788 86.088 25.9428 87.944 24.3428 89.512C22.7748 91.048 20.7588 91.816 18.2948 91.816ZM36.2288 91.288C34.4048 91.288 32.8848 90.664 31.6688 89.416C30.4527 88.168 29.8447 86.216 29.8447 83.56C29.8447 81.192 30.3088 78.712 31.2368 76.12C32.1968 73.496 33.6048 71.288 35.4608 69.496C37.3488 67.672 39.5888 66.76 42.1808 66.76C43.4928 66.76 44.4688 66.984 45.1088 67.432C45.7488 67.88 46.0688 68.472 46.0688 69.208V69.544L46.5968 67H53.5088L50.0528 83.32C49.9248 83.8 49.8608 84.312 49.8608 84.856C49.8608 86.232 50.5168 86.92 51.8288 86.92C52.7248 86.92 53.4928 86.504 54.1328 85.672C54.8048 84.84 55.3328 83.752 55.7168 82.408H57.7328C56.5488 85.864 55.0768 88.216 53.3168 89.464C51.5888 90.68 49.8448 91.288 48.0848 91.288C46.7408 91.288 45.6528 90.92 44.8208 90.184C44.0208 89.416 43.5408 88.312 43.3808 86.872C42.4528 88.184 41.4128 89.256 40.2608 90.088C39.1408 90.888 37.7968 91.288 36.2288 91.288ZM39.3488 86.632C40.1488 86.632 40.9328 86.264 41.7008 85.528C42.5008 84.76 43.0448 83.72 43.3328 82.408L45.6368 71.56C45.6368 71.144 45.4768 70.744 45.1568 70.36C44.8368 69.944 44.3408 69.736 43.6688 69.736C42.3888 69.736 41.2368 70.488 40.2128 71.992C39.1888 73.464 38.3888 75.256 37.8128 77.368C37.2368 79.448 36.9488 81.288 36.9488 82.888C36.9488 84.488 37.1728 85.512 37.6208 85.96C38.1008 86.408 38.6768 86.632 39.3488 86.632ZM58.9984 67H65.9104L65.2864 69.976C66.3744 69.016 67.3504 68.28 68.2144 67.768C69.1104 67.256 70.0704 67 71.0944 67C72.1184 67 72.9184 67.352 73.4944 68.056C74.1024 68.76 74.4064 69.608 74.4064 70.6C74.4064 71.528 74.1024 72.344 73.4944 73.048C72.8864 73.752 72.0384 74.104 70.9504 74.104C70.2464 74.104 69.7664 73.944 69.5104 73.624C69.2864 73.272 69.1104 72.776 68.9824 72.136C68.8864 71.72 68.7904 71.416 68.6944 71.224C68.5984 71.032 68.4224 70.936 68.1664 70.936C67.4944 70.936 66.9184 71.08 66.4384 71.368C65.9904 71.624 65.3984 72.088 64.6624 72.76L60.8224 91H53.9104L58.9984 67ZM89.1893 58.024C86.7573 58.824 84.8693 60.152 83.5253 62.008C82.2133 63.832 81.5573 66.104 81.5573 68.824C81.5573 70.04 81.6693 70.872 81.8933 71.32C82.1173 71.768 82.2293 72.04 82.2293 72.136C78.8053 72.136 77.0933 70.68 77.0933 67.768C77.0933 65.784 77.8453 63.8 79.3493 61.816C80.8853 59.8 82.8373 58.168 85.2053 56.92C87.6053 55.64 89.9893 55 92.3573 55C93.5413 55 94.7573 55.224 96.0053 55.672L94.9013 80.968L105.461 55.672H112.373L107.333 91H100.421L103.493 69.448L94.4693 91H87.8932L88.8533 69.352L80.8372 91H76.9973L89.1893 58.024ZM117.323 91.288C115.499 91.288 113.979 90.664 112.763 89.416C111.546 88.168 110.938 86.216 110.938 83.56C110.938 81.192 111.403 78.712 112.331 76.12C113.291 73.496 114.699 71.288 116.555 69.496C118.443 67.672 120.683 66.76 123.275 66.76C124.587 66.76 125.563 66.984 126.203 67.432C126.843 67.88 127.163 68.472 127.163 69.208V69.544L127.691 67H134.603L131.147 83.32C131.019 83.8 130.955 84.312 130.955 84.856C130.955 86.232 131.611 86.92 132.923 86.92C133.819 86.92 134.587 86.504 135.227 85.672C135.899 84.84 136.427 83.752 136.811 82.408H138.827C137.643 85.864 136.171 88.216 134.411 89.464C132.683 90.68 130.939 91.288 129.179 91.288C127.835 91.288 126.747 90.92 125.915 90.184C125.115 89.416 124.635 88.312 124.475 86.872C123.547 88.184 122.507 89.256 121.355 90.088C120.235 90.888 118.891 91.288 117.323 91.288ZM120.443 86.632C121.243 86.632 122.027 86.264 122.795 85.528C123.595 84.76 124.139 83.72 124.427 82.408L126.731 71.56C126.731 71.144 126.571 70.744 126.251 70.36C125.931 69.944 125.435 69.736 124.763 69.736C123.483 69.736 122.331 70.488 121.307 71.992C120.283 73.464 119.483 75.256 118.907 77.368C118.331 79.448 118.043 81.288 118.043 82.888C118.043 84.488 118.267 85.512 118.715 85.96C119.195 86.408 119.771 86.632 120.443 86.632ZM140.476 65.224H147.388L146.62 68.824C148.22 67.448 150.092 66.76 152.236 66.76C154.028 66.76 155.452 67.352 156.508 68.536C157.564 69.72 158.092 71.656 158.092 74.344C158.092 76.872 157.724 79.432 156.988 82.024C156.252 84.584 155.004 86.776 153.244 88.6C151.484 90.392 149.164 91.288 146.284 91.288C144.236 91.288 142.876 90.712 142.204 89.56L139.708 101.272L132.46 103L140.476 65.224ZM144.796 87.112C146.332 87.112 147.596 86.392 148.588 84.952C149.612 83.512 150.348 81.8 150.796 79.816C151.276 77.8 151.516 75.928 151.516 74.2C151.516 71.544 150.716 70.216 149.116 70.216C148.54 70.216 147.948 70.424 147.34 70.84C146.764 71.256 146.252 71.832 145.804 72.568L142.972 86.008C143.228 86.744 143.836 87.112 144.796 87.112Z" fill="#EEEEEE"/>
<defs>
<clipPath id="clip0">
<rect x="32" y="16.7391" width="93.2605" height="93.2605" fill="white"/>
</clipPath>
<clipPath id="clip1">
<rect x="24.029" y="20.7246" width="15.1449" height="15.1449" fill="white"/>
</clipPath>
<clipPath id="clip2">
<rect x="60.8453" y="1.8885" width="74.8246" height="74.8246" transform="rotate(19.8135 60.8453 1.8885)" fill="white"/>
</clipPath>
</defs>
</svg>
