<svg fill="#eeeeee" id="Capa_1" enable-background="new 0 0 512 512" height="512" viewBox="0 0 512 512" width="512" xmlns="http://www.w3.org/2000/svg"><g><path d="m180 301.82v30.18h152v-30.178c-50.275-7.792-101.726-7.793-152-.002z"/><path d="m180 255.5v15.986c50.319-7.338 101.682-7.343 152-.004v-15.982c0-63.193 55.805-112.523 119-104.064v-15.936c0-57.897-47.103-105-105-105h-181c-57.897 0-105 47.103-105 105v16.076c4.901-.704 9.907-1.076 15-1.076 57.897 0 105 47.103 105 105zm121-160c0-8.284 6.716-15 15-15s15 6.716 15 15c8.284 0 15 6.716 15 15s-6.716 15-15 15c0 8.284-6.716 15-15 15s-15-6.716-15-15c-8.284 0-15-6.716-15-15s6.716-15 15-15zm-60 90c0-8.284 6.716-15 15-15s15 6.716 15 15c8.284 0 15 6.716 15 15s-6.716 15-15 15c0 8.284-6.716 15-15 15s-15-6.716-15-15c-8.284 0-15-6.716-15-15s6.716-15 15-15zm-60-90c0-8.284 6.716-15 15-15s15 6.716 15 15c8.284 0 15 6.716 15 15s-6.716 15-15 15c0 8.284-6.716 15-15 15s-15-6.716-15-15c-8.284 0-15-6.716-15-15s6.716-15 15-15z"/><path d="m437 180.5c-41.355 0-75 33.645-75 75v106.5h-212v-106.5c0-41.355-33.645-75-75-75s-75 33.645-75 75c0 36.219 25.81 66.524 60 73.493v87.507c0 17.601 13.062 32.203 30 34.637v15.363c0 8.284 6.716 15 15 15s15-6.716 15-15v-15h271v15c0 8.284 6.716 15 15 15s15-6.716 15-15v-15.235c17.421-1.992 31-16.819 31-34.765v-87.507c34.19-6.969 60-37.274 60-73.493 0-41.355-33.645-75-75-75zm-361 90.5c-8.284 0-15-6.716-15-15s6.716-15 15-15 15 6.716 15 15-6.716 15-15 15zm360 0c-8.284 0-15-6.716-15-15s6.716-15 15-15 15 6.716 15 15-6.716 15-15 15z"/></g></svg>