<svg xmlns="http://www.w3.org/2000/svg" width="18.437" height="19.883" viewBox="0 0 18.437 19.883">
  <path id="music-player" d="M20.314.09A.366.366,0,0,0,20.029,0L8.822,1.453a.361.361,0,0,0-.315.358V14.686a3.751,3.751,0,0,0-2.892-1.31A3.453,3.453,0,0,0,2,16.63a3.453,3.453,0,0,0,3.615,3.254A3.453,3.453,0,0,0,9.23,16.63c0-.084-.007-.166-.014-.248a.348.348,0,0,0,.014-.069V5.827L19.714,4.471v6.6a3.752,3.752,0,0,0-2.892-1.309,3.453,3.453,0,0,0-3.615,3.254,3.453,3.453,0,0,0,3.615,3.254,3.458,3.458,0,0,0,3.613-3.206s0-.009,0-.013V.362A.361.361,0,0,0,20.314.09Z" transform="translate(-2 -0.001)" fill="#eee"/>
</svg>
