<svg width="48" height="70" viewBox="0 0 48 70" fill="none" xmlns="http://www.w3.org/2000/svg">
<path d="M23.9939 3.13004C18.4451 3.13832 13.1261 5.39197 9.20311 9.39679C5.28014 13.4016 3.07345 18.8307 3.06696 24.4935C3.06696 29.3117 6.37928 37.2536 12.9099 48.096C17.6861 56.0255 22.5197 62.7133 22.5769 62.7801L24.0082 64.7395L25.4394 62.7801C25.4885 62.7133 30.3302 56.0234 35.1065 48.096C41.6391 37.2453 44.9494 29.3159 44.9494 24.4935C44.9429 18.8256 42.7323 13.3921 38.8031 9.38647C34.874 5.38082 29.5476 3.13058 23.9939 3.13004V3.13004ZM23.9939 36.3793C21.6261 36.3793 19.3116 35.6628 17.3429 34.3203C15.3742 32.9778 13.8398 31.0697 12.9338 28.8372C12.0277 26.6047 11.7906 24.1482 12.2525 21.7782C12.7144 19.4083 13.8546 17.2313 15.5288 15.5226C17.2031 13.814 19.3361 12.6504 21.6584 12.179C23.9806 11.7075 26.3876 11.9495 28.5751 12.8742C30.7626 13.7989 32.6323 15.3649 33.9477 17.374C35.2631 19.3832 35.9652 21.7453 35.9652 24.1618C35.962 27.401 34.6997 30.5067 32.4553 32.7972C30.211 35.0877 27.1679 36.376 23.9939 36.3793V36.3793Z" fill="#EEEEEE" stroke="white" stroke-width="3"/>
<ellipse cx="24.5" cy="24" rx="14.5" ry="15" fill="#EEEEEE"/>
</svg>
