<svg width="47" height="47" viewBox="0 0 47 47" fill="none" xmlns="http://www.w3.org/2000/svg">
<path d="M45.952 23.09C45.955 19.4305 45.045 15.828 43.3045 12.6089C41.564 9.3898 39.048 6.6557 35.9843 4.65423C32.9206 2.65276 29.4061 1.44715 25.7589 1.14658C22.1118 0.846021 18.4473 1.46 15.0973 2.93292C11.7472 4.40583 8.81758 6.69116 6.57358 9.58191C4.32957 12.4727 2.84212 15.8775 2.24594 19.4882C1.64976 23.0988 1.96368 26.8011 3.15926 30.2598C4.35485 33.7185 6.39434 36.8243 9.09302 39.296L9.07202 39.314L9.78602 39.914C9.83202 39.953 9.88602 39.985 9.92902 40.024C10.308 40.338 10.701 40.637 11.101 40.924C11.231 41.018 11.36 41.111 11.492 41.202C11.9194 41.4967 12.3574 41.776 12.806 42.04C12.906 42.098 13.006 42.154 13.1 42.21C13.59 42.489 14.091 42.752 14.6 42.994L14.714 43.045C16.4082 43.832 18.1965 44.398 20.035 44.729L20.182 44.755C20.761 44.855 21.347 44.935 21.94 44.989L22.157 45.006C22.752 45.059 23.352 45.09 23.952 45.09C24.552 45.09 25.142 45.059 25.73 45.012L25.952 44.99C26.54 44.9367 27.1207 44.86 27.694 44.76L27.844 44.733C29.655 44.4089 31.4177 43.8568 33.09 43.09C33.151 43.062 33.212 43.036 33.273 43.007C33.7664 42.775 34.2494 42.5253 34.722 42.258C34.8394 42.1913 34.9564 42.1247 35.073 42.058C35.503 41.804 35.927 41.54 36.338 41.258C36.486 41.158 36.631 41.051 36.777 40.945C37.128 40.692 37.477 40.431 37.808 40.159C37.882 40.099 37.962 40.047 38.035 39.985L38.767 39.374L38.745 39.356C41.0154 37.2982 42.8297 34.7877 44.071 31.9862C45.3123 29.1847 45.953 26.1542 45.952 23.09V23.09ZM3.55202 23.09C3.54894 19.6823 4.39953 16.3282 6.02613 13.3338C7.65274 10.3395 10.0035 7.80026 12.8639 5.94808C15.7242 4.09589 19.0029 2.98974 22.4007 2.73061C25.7985 2.47148 29.2071 3.06763 32.3152 4.46464C35.4234 5.86164 38.132 8.01499 40.1939 10.7281C42.2558 13.4411 43.6052 16.6275 44.1189 19.9962C44.6326 23.3649 44.2942 26.8086 43.1347 30.013C41.9752 33.2173 40.0315 36.0801 37.481 38.34C37.2533 38.1803 37.0147 38.0366 36.767 37.91L29.993 34.524C29.6962 34.377 29.4464 34.1497 29.2722 33.8679C29.0979 33.5862 29.006 33.2613 29.007 32.93V30.564C29.164 30.37 29.329 30.151 29.501 29.91C30.3891 28.6492 31.0938 27.2688 31.594 25.81C32.0936 25.5756 32.5158 25.2035 32.8113 24.7375C33.1067 24.2714 33.2631 23.7308 33.262 23.179V20.345C33.2608 19.647 33.0088 18.9727 32.552 18.445V14.716C32.6903 13.0147 32.1488 11.3279 31.046 10.025C29.571 8.342 27.185 7.49 23.952 7.49C20.719 7.49 18.333 8.342 16.858 10.024C15.7551 11.3272 15.2136 13.0144 15.352 14.716V18.45C14.8955 18.9779 14.6436 19.6521 14.642 20.35V23.18C14.6419 23.6122 14.738 24.039 14.9235 24.4294C15.1089 24.8198 15.3789 25.164 15.714 25.437C16.2065 27.2824 17.0461 29.017 18.188 30.548V32.863C18.1879 33.1835 18.1014 33.498 17.9378 33.7735C17.7741 34.0491 17.5393 34.2755 17.258 34.429L10.934 37.88C10.7264 37.9946 10.526 38.1218 10.334 38.261C8.19985 36.3517 6.49263 34.0135 5.32396 31.3993C4.1553 28.785 3.5515 25.9536 3.55202 23.09V23.09Z" fill="#EEEEEE" stroke="#EEEEEE" stroke-width="2"/>
</svg>
