<svg width="23" height="22" viewBox="0 0 23 22" fill="none" xmlns="http://www.w3.org/2000/svg">
<path d="M8.75464 14.8437L8.31541 15.0692L7.57091 10.3541L8.75464 9.33202V14.8437Z" stroke="#EEEEEE" stroke-width="5"/>
<path d="M22.3737 7.98753C22.2851 7.71502 22.122 7.47274 21.9028 7.28807C21.6837 7.1034 21.4173 6.98371 21.1337 6.94254L15.2727 6.09053L12.6507 0.783539C12.509 0.544783 12.3077 0.347001 12.0664 0.209625C11.8252 0.0722499 11.5523 0 11.2747 0C10.9971 0 10.7242 0.0722499 10.483 0.209625C10.2417 0.347001 10.0404 0.544783 9.89869 0.783539L7.27668 6.09053L1.42869 6.94254C1.14523 6.98367 0.87894 7.10334 0.659983 7.28801C0.441027 7.47268 0.278158 7.71496 0.189799 7.98743C0.101441 8.25989 0.0911357 8.55166 0.160045 8.82968C0.228953 9.1077 0.374315 9.36087 0.579692 9.56053L4.81871 13.6815L3.81871 19.5135C3.77008 19.7961 3.80153 20.0866 3.90953 20.3521C4.01752 20.6177 4.19773 20.8477 4.42973 21.0161C4.66173 21.1845 4.93628 21.2846 5.22224 21.305C5.50819 21.3254 5.79415 21.2653 6.04771 21.1315L11.2727 18.3765L16.5127 21.1315C16.7328 21.2477 16.9778 21.3085 17.2267 21.3085C17.5518 21.3082 17.8686 21.2061 18.1327 21.0165C18.3638 20.8479 18.5434 20.6183 18.6513 20.3533C18.7592 20.0884 18.7912 19.7986 18.7437 19.5165L17.7437 13.6835L21.9827 9.56253C22.1887 9.36289 22.3346 9.10945 22.4037 8.83102C22.4728 8.5526 22.4624 8.26035 22.3737 7.98753ZM15.0217 12.0445C14.8429 12.2182 14.709 12.4328 14.6317 12.6697C14.5543 12.9066 14.5358 13.1588 14.5777 13.4045L15.1887 16.9685L11.9887 15.2845C11.7687 15.1687 11.5238 15.1081 11.2752 15.1081C11.0266 15.1081 10.7817 15.1687 10.5617 15.2845L7.37568 16.9635L7.9867 13.4045C8.02877 13.1588 8.01033 12.9066 7.93296 12.6696C7.8556 12.4326 7.72164 12.2181 7.5427 12.0445L4.95768 9.53154L8.51969 9.01254C8.7656 8.97656 8.99907 8.8814 9.20008 8.73526C9.40109 8.58912 9.56362 8.39636 9.67369 8.17354L11.2737 4.93054L12.8737 8.17354C12.9837 8.39682 13.1464 8.58992 13.3478 8.73611C13.5493 8.88231 13.7833 8.97719 14.0297 9.01254L17.6057 9.53253L15.0217 12.0445Z" fill="#EEEEEE"/>
</svg>
