<svg width="23" height="22" viewBox="0 0 23 22" fill="none" xmlns="http://www.w3.org/2000/svg">
<path d="M22.4891 8.117C22.4004 7.84449 22.2373 7.60221 22.0182 7.41754C21.7991 7.23287 21.5327 7.11318 21.2491 7.07201L15.388 6.22L12.7661 0.91301C12.6244 0.674254 12.423 0.476471 12.1818 0.339096C11.9405 0.201721 11.6677 0.129471 11.3901 0.129471C11.1124 0.129471 10.8396 0.201721 10.5983 0.339096C10.3571 0.476471 10.1557 0.674254 10.014 0.91301L7.39204 6.22L1.54405 7.07201C1.26058 7.11314 0.994296 7.23281 0.77534 7.41748C0.556384 7.60215 0.393514 7.84443 0.305156 8.1169C0.216797 8.38936 0.206492 8.68113 0.275401 8.95915C0.34431 9.23717 0.489671 9.49034 0.695048 9.69L4.93406 13.811L3.93406 19.643C3.88544 19.9255 3.91689 20.216 4.02488 20.4816C4.13288 20.7472 4.31308 20.9772 4.54508 21.1456C4.77709 21.314 5.05164 21.4141 5.3376 21.4345C5.62355 21.4549 5.90951 21.3948 6.16307 21.261L11.388 18.506L16.6281 21.261C16.8481 21.3772 17.0932 21.4379 17.3421 21.438C17.6671 21.4376 17.9839 21.3355 18.2481 21.146C18.4792 20.9774 18.6588 20.7478 18.7667 20.4828C18.8746 20.2179 18.9066 19.9281 18.859 19.646L17.859 13.813L22.0981 9.692C22.3041 9.49236 22.4499 9.23892 22.5191 8.96049C22.5882 8.68207 22.5778 8.38982 22.4891 8.117ZM15.1371 12.174C14.9583 12.3477 14.8244 12.5622 14.7471 12.7992C14.6697 13.0361 14.6512 13.2883 14.6931 13.534L15.3041 17.098L12.104 15.414C11.8841 15.2981 11.6392 15.2376 11.3905 15.2376C11.1419 15.2376 10.897 15.2981 10.677 15.414L7.49104 17.093L8.10206 13.534C8.14413 13.2883 8.12568 13.036 8.04832 12.7991C7.97096 12.5621 7.837 12.3476 7.65806 12.174L5.07304 9.66101L8.63505 9.14201C8.88095 9.10603 9.11443 9.01087 9.31544 8.86473C9.51645 8.71859 9.67898 8.52583 9.78904 8.30301L11.389 5.06001L12.9891 8.30301C13.099 8.52629 13.2618 8.71939 13.4632 8.86559C13.6646 9.01178 13.8987 9.10666 14.1451 9.14201L17.721 9.662L15.1371 12.174Z" fill="#EEEEEE"/>
</svg>
