<svg width="24" height="22" viewBox="0 0 24 22" fill="none" xmlns="http://www.w3.org/2000/svg">
<path d="M22.931 8.116C22.8424 7.84348 22.6793 7.6012 22.4602 7.41653C22.241 7.23187 21.9746 7.11217 21.691 7.071L15.83 6.21901L13.206 0.912003C13.0643 0.673246 12.863 0.475464 12.6217 0.338089C12.3805 0.200714 12.1076 0.128479 11.83 0.128479C11.5524 0.128479 11.2795 0.200714 11.0383 0.338089C10.797 0.475464 10.5957 0.673246 10.454 0.912003L7.83201 6.21901L1.98402 7.071C1.70055 7.11213 1.43427 7.23182 1.21531 7.41649C0.996356 7.60116 0.833456 7.84344 0.745097 8.11591C0.656738 8.38837 0.646434 8.68012 0.715342 8.95815C0.784251 9.23617 0.929643 9.48935 1.13502 9.68901L5.374 13.81L4.374 19.643C4.32538 19.9255 4.35686 20.216 4.46485 20.4816C4.57285 20.7472 4.75305 20.9772 4.98506 21.1456C5.21706 21.314 5.49158 21.4141 5.77754 21.4345C6.06349 21.4549 6.34945 21.3948 6.60301 21.261L11.828 18.506L17.068 21.261C17.2881 21.3772 17.5332 21.4379 17.782 21.438C18.1071 21.4376 18.4239 21.3355 18.688 21.146C18.9191 20.9774 19.0987 20.7478 19.2066 20.4828C19.3146 20.2179 19.3466 19.9281 19.299 19.646L18.299 13.813L22.538 9.692C22.7446 9.49255 22.8911 9.23904 22.9606 8.96037C23.03 8.68171 23.0198 8.38912 22.931 8.116Z" fill="#EEEEEE"/>
</svg>
